<?xml version="1.0" encoding="UTF-8" standalone="no"?><!DOCTYPE svg PUBLIC "-//W3C//DTD SVG 1.1//EN" "http://www.w3.org/Graphics/SVG/1.1/DTD/svg11.dtd"><svg width="100%" height="100%" viewBox="0 0 213 416" version="1.1" xmlns="http://www.w3.org/2000/svg" xmlns:xlink="http://www.w3.org/1999/xlink" xml:space="preserve" xmlns:serif="http://www.serif.com/" style="fill-rule:evenodd;clip-rule:evenodd;stroke-linejoin:round;stroke-miterlimit:2;"><g><path d="M115.929,329.119l96.523,-117.507l-101.769,-123.801l-72.392,57.704l51.409,66.097l-48.262,60.852l74.491,56.655Z" style="fill:#74c561;"/><path d="M89.085,212.792l-55.076,-66.787l76.438,-59.215c0,-0 44.718,48.975 -21.362,126.002" style="fill:#386277;"/><g><path d="M33.683,305.348l17.324,13.51l15.652,-20.069l-17.324,-13.511l-15.652,20.07Z" style="fill:#74c561;"/><path d="M20.262,299.116l8.248,6.433l7.826,-10.035l-8.249,-6.433l-7.825,10.035Z" style="fill:#74c561;"/><path d="M20.89,299.65l8.249,6.433l7.826,-10.035l-8.249,-6.433l-7.826,10.035Z" style="fill:#74c561;"/><path d="M3.691,316.317l9.29,7.245l7.826,-10.035l-9.29,-7.245l-7.826,10.035Z" style="fill:#74c561;"/><path d="M21.146,323.65l13.837,10.791l10.831,-13.887l-13.838,-10.792l-10.83,13.888Z" style="fill:#74c561;"/><path d="M40.398,339.383l8.368,6.526l7.826,-10.035l-8.368,-6.526l-7.826,10.035Z" style="fill:#74c561;"/><path d="M48.26,323.998l12.542,9.78l10.063,-12.903l-12.541,-9.781l-10.064,12.904Z" style="fill:#74c561;"/><path d="M53.486,346.689l12.414,9.681l9.183,-11.774l-12.414,-9.682l-9.183,11.775Z" style="fill:#74c561;"/><path d="M50.075,366.891l9.137,7.125l8.638,-11.076l-9.137,-7.126l-8.638,11.077Z" style="fill:#74c561;"/><path d="M63.252,379.013l8.249,6.433l7.826,-10.035l-8.249,-6.433l-7.826,10.035Z" style="fill:#74c561;"/><path d="M34.489,377.591l10.267,8.007l8.46,-10.847l-10.267,-8.007l-8.46,10.847Z" style="fill:#74c561;"/><path d="M15.527,371.034l10.331,8.058l7.826,-10.035l-10.331,-8.058l-7.826,10.035Z" style="fill:#74c561;"/><path d="M50.695,395.551l8.249,6.433l7.826,-10.035l-8.249,-6.433l-7.826,10.035Z" style="fill:#74c561;"/><path d="M34.696,396.827l6.164,4.807l4.676,-5.995l-6.164,-4.807l-4.676,5.995Z" style="fill:#74c561;"/><path d="M47.467,411.588l5.256,4.099l4.203,-5.389l-5.256,-4.099l-4.203,5.389Z" style="fill:#74c561;"/><path d="M32.636,355.919l11.548,9.006l8.752,-11.222l-11.549,-9.006l-8.751,11.222Z" style="fill:#74c561;"/><path d="M9.388,342.796l12.021,9.374l9.45,-12.117l-12.021,-9.375l-9.45,12.118Z" style="fill:#74c561;"/><path d="M71.104,360.828l8.249,6.433l7.826,-10.034l-8.249,-6.433l-7.826,10.034Z" style="fill:#74c561;"/><path d="M84.771,347.072l10.332,8.058l8.448,-10.833l-10.332,-8.057l-8.448,10.832Z" style="fill:#74c561;"/><path d="M66.106,329.801l17.324,13.51l15.652,-20.069l-17.324,-13.511l-15.652,20.07Z" style="fill:#74c561;"/></g><g><path d="M30.092,110.51l17.199,-13.67l15.835,19.925l-17.199,13.669l-15.835,-19.924Z" style="fill:#386277;"/><path d="M16.728,116.865l8.189,-6.509l7.918,9.962l-8.189,6.509l-7.918,-9.962Z" style="fill:#386277;"/><path d="M17.351,116.325l8.19,-6.509l7.918,9.963l-8.19,6.508l-7.918,-9.962Z" style="fill:#386277;"/><path d="M-0,99.817l9.223,-7.33l7.918,9.962l-9.223,7.33l-7.918,-9.962Z" style="fill:#386277;"/><path d="M17.386,92.323l13.738,-10.918l10.958,13.788l-13.738,10.918l-10.958,-13.788Z" style="fill:#386277;"/><path d="M36.493,76.414l8.308,-6.602l7.918,9.962l-8.308,6.602l-7.918,-9.962Z" style="fill:#386277;"/><path d="M44.497,91.726l12.451,-9.895l10.181,12.81l-12.451,9.896l-10.181,-12.811Z" style="fill:#386277;"/><path d="M49.514,68.988l12.324,-9.795l9.291,11.69l-12.325,9.795l-9.29,-11.69Z" style="fill:#386277;"/><path d="M45.917,48.819l9.071,-7.21l8.739,10.997l-9.071,7.209l-8.739,-10.996Z" style="fill:#386277;"/><path d="M58.982,36.576l8.189,-6.509l7.918,9.962l-8.189,6.509l-7.918,-9.962Z" style="fill:#386277;"/><path d="M30.233,38.262l10.193,-8.101l8.559,10.769l-10.193,8.101l-8.559,-10.769Z" style="fill:#386277;"/><path d="M11.332,44.993l10.257,-8.152l7.918,9.962l-10.257,8.152l-7.918,-9.962Z" style="fill:#386277;"/><path d="M46.273,20.154l8.189,-6.509l7.918,9.962l-8.189,6.509l-7.918,-9.962Z" style="fill:#386277;"/><path d="M30.263,19.025l6.12,-4.864l4.73,5.952l-6.119,4.863l-4.731,-5.951Z" style="fill:#386277;"/><path d="M42.898,4.147l5.218,-4.147l4.252,5.35l-5.218,4.147l-4.252,-5.35Z" style="fill:#386277;"/><path d="M28.579,59.951l11.465,-9.112l8.854,11.141l-11.464,9.112l-8.855,-11.141Z" style="fill:#386277;"/><path d="M5.453,73.287l11.934,-9.485l9.561,12.03l-11.934,9.485l-9.561,-12.03Z" style="fill:#386277;"/><path d="M67.001,54.687l8.189,-6.509l7.918,9.963l-8.189,6.509l-7.918,-9.963Z" style="fill:#386277;"/><path d="M80.794,68.317l10.257,-8.152l8.547,10.754l-10.257,8.152l-8.547,-10.754Z" style="fill:#386277;"/><path d="M62.288,85.759l17.199,-13.669l15.836,19.925l-17.199,13.669l-15.836,-19.925Z" style="fill:#386277;"/></g></g></svg>